<svg xmlns="http://www.w3.org/2000/svg" viewBox="0 0 1200 620" role="img" aria-labelledby="title desc">
  <title id="title">Light Skills research workflow</title>
  <desc id="desc">A seven-stage auditable research workflow from project intake to paper submission, with integrity, demo, and IP side tracks.</desc>
  <defs>
    <linearGradient id="bg" x1="0" y1="0" x2="1" y2="1">
      <stop offset="0" stop-color="#F8FBFF"/>
      <stop offset="0.54" stop-color="#F4F7FF"/>
      <stop offset="1" stop-color="#F8FCFA"/>
    </linearGradient>
    <linearGradient id="card" x1="0" y1="0" x2="1" y2="1">
      <stop offset="0" stop-color="#FFFFFF"/>
      <stop offset="1" stop-color="#F7F8FF"/>
    </linearGradient>
    <linearGradient id="accent" x1="0" y1="0" x2="1" y2="1">
      <stop offset="0" stop-color="#5CE1E6"/>
      <stop offset="0.5" stop-color="#7C6CFF"/>
      <stop offset="1" stop-color="#A86BFF"/>
    </linearGradient>
    <filter id="shadow" x="-20%" y="-20%" width="140%" height="150%">
      <feDropShadow dx="0" dy="16" stdDeviation="16" flood-color="#243056" flood-opacity="0.12"/>
    </filter>
    <marker id="arrow" viewBox="0 0 10 10" refX="8.5" refY="5" markerWidth="9" markerHeight="9" orient="auto-start-reverse">
      <path d="M 0 0 L 10 5 L 0 10 z" fill="#6D72F6"/>
    </marker>
    <style>
      .title { font: 700 34px "Inter", "Segoe UI", Arial, sans-serif; fill: #111827; }
      .subtitle { font: 500 16px "Inter", "Segoe UI", Arial, sans-serif; fill: #5B6478; }
      .card-title { font: 700 18px "Inter", "Segoe UI", Arial, sans-serif; fill: #101828; }
      .card-small { font: 500 12.4px "Inter", "Segoe UI", Arial, sans-serif; fill: #667085; }
      .rail-title { font: 700 18px "Inter", "Segoe UI", Arial, sans-serif; fill: #111827; }
      .rail-small { font: 500 13px "Inter", "Segoe UI", Arial, sans-serif; fill: #667085; }
      .num { font: 800 15px "Inter", Arial, sans-serif; fill: white; }
      .badge { font: 800 11px "Inter", Arial, sans-serif; fill: #5B21B6; letter-spacing: 0.7px; }
      .arrow { stroke: #6D72F6; stroke-width: 2.4; fill: none; marker-end: url(#arrow); stroke-linecap: round; }
      .loop { stroke: #A78BFA; stroke-width: 2; fill: none; marker-end: url(#arrow); stroke-dasharray: 6 7; stroke-linecap: round; }
    </style>
  </defs>

  <rect x="18" y="18" width="1164" height="584" rx="34" fill="url(#bg)" stroke="#E3E8F7"/>
  <path d="M70 104 C250 10 410 46 548 106 C722 181 860 104 1045 54" stroke="#DDE6FF" stroke-width="28" opacity="0.42" fill="none"/>
  <path d="M82 558 C275 468 418 515 574 550 C784 598 919 525 1112 455" stroke="#D9FAF2" stroke-width="36" opacity="0.56" fill="none"/>

  <text x="60" y="68" class="title">From question to delivery: 7 auditable gates</text>
  <text x="60" y="98" class="subtitle">Each step requires evidence, outputs, and user decisions; weak steps loop back instead of letting an agent autopilot.</text>

  <g filter="url(#shadow)">
    <g transform="translate(42 150)">
      <rect width="145" height="210" rx="22" fill="url(#card)" stroke="#D9DDFE"/>
      <circle cx="28" cy="30" r="17" fill="url(#accent)"/><text x="28" y="35" text-anchor="middle" class="num">1</text>
      <text x="18" y="74" class="card-title">Intake</text>
      <text x="18" y="102" class="card-small">Read files</text>
      <text x="18" y="122" class="card-small">Project ledger</text>
      <text x="18" y="164" class="card-small">file-reading</text>
      <text x="18" y="184" class="card-small">memory-pm</text>
    </g>

    <g transform="translate(204 150)">
      <rect width="145" height="210" rx="22" fill="url(#card)" stroke="#D9DDFE"/>
      <circle cx="28" cy="30" r="17" fill="url(#accent)"/><text x="28" y="35" text-anchor="middle" class="num">2</text>
      <text x="18" y="74" class="card-title">Search</text>
      <text x="18" y="102" class="card-small">Literature map</text>
      <text x="18" y="122" class="card-small">Evidence sources</text>
      <text x="18" y="164" class="card-small">literature-search</text>
      <text x="18" y="184" class="card-small">citation</text>
    </g>

    <g transform="translate(366 150)">
      <rect width="145" height="210" rx="22" fill="url(#card)" stroke="#D9DDFE"/>
      <circle cx="28" cy="30" r="17" fill="url(#accent)"/><text x="28" y="35" text-anchor="middle" class="num">3</text>
      <rect x="82" y="19" width="45" height="22" rx="11" fill="#EEE9FF"/><text x="104.5" y="34" text-anchor="middle" class="badge">GATE</text>
      <text x="18" y="74" class="card-title">Critique</text>
      <text x="18" y="102" class="card-small">Novelty prior</text>
      <text x="18" y="122" class="card-small">Fatal flaws</text>
      <text x="18" y="164" class="card-small">idea-generation</text>
      <text x="18" y="184" class="card-small">idea-critique</text>
    </g>

    <g transform="translate(528 150)">
      <rect width="145" height="210" rx="22" fill="url(#card)" stroke="#D9DDFE"/>
      <circle cx="28" cy="30" r="17" fill="url(#accent)"/><text x="28" y="35" text-anchor="middle" class="num">4</text>
      <text x="18" y="74" class="card-title">Plan</text>
      <text x="18" y="102" class="card-small">Hypotheses</text>
      <text x="18" y="122" class="card-small">Controls / power</text>
      <text x="18" y="164" class="card-small">research-plan</text>
      <text x="18" y="184" class="card-small">research-ethics</text>
    </g>

    <g transform="translate(690 150)">
      <rect width="145" height="210" rx="22" fill="url(#card)" stroke="#D9DDFE"/>
      <circle cx="28" cy="30" r="17" fill="url(#accent)"/><text x="28" y="35" text-anchor="middle" class="num">5</text>
      <text x="18" y="74" class="card-title">Analyze</text>
      <text x="18" y="102" class="card-small">Data pipeline</text>
      <text x="18" y="122" class="card-small">Code / stats</text>
      <text x="18" y="164" class="card-small">data-engineering</text>
      <text x="18" y="184" class="card-small">result-analysis</text>
    </g>

    <g transform="translate(852 150)">
      <rect width="145" height="210" rx="22" fill="url(#card)" stroke="#D9DDFE"/>
      <circle cx="28" cy="30" r="17" fill="url(#accent)"/><text x="28" y="35" text-anchor="middle" class="num">6</text>
      <text x="18" y="74" class="card-title">Write</text>
      <text x="18" y="102" class="card-small">Python / R figures</text>
      <text x="18" y="122" class="card-small">Claims / consistency</text>
      <text x="18" y="164" class="card-small">figure</text>
      <text x="18" y="184" class="card-small">paper-writing</text>
    </g>

    <g transform="translate(1014 150)">
      <rect width="145" height="210" rx="22" fill="url(#card)" stroke="#D9DDFE"/>
      <circle cx="28" cy="30" r="17" fill="url(#accent)"/><text x="28" y="35" text-anchor="middle" class="num">7</text>
      <rect x="82" y="19" width="45" height="22" rx="11" fill="#E6F7F3"/><text x="104.5" y="34" text-anchor="middle" class="badge">SHIP</text>
      <text x="18" y="74" class="card-title">Submit</text>
      <text x="18" y="102" class="card-small">LaTeX / template</text>
      <text x="18" y="122" class="card-small">Venue / rebuttal</text>
      <text x="18" y="164" class="card-small">typesetting</text>
      <text x="18" y="184" class="card-small">venue-matching</text>
    </g>
  </g>

  <path class="arrow" d="M187 255 H197"/>
  <path class="arrow" d="M349 255 H359"/>
  <path class="arrow" d="M511 255 H521"/>
  <path class="arrow" d="M673 255 H683"/>
  <path class="arrow" d="M835 255 H845"/>
  <path class="arrow" d="M997 255 H1007"/>
  <path class="loop" d="M438 368 C413 402 341 400 314 355"/>
  <text x="284" y="394" class="card-small" fill="#7C3AED">If weak: revise the idea</text>

  <g filter="url(#shadow)">
    <g transform="translate(60 430)">
      <rect width="330" height="112" rx="24" fill="#FFFFFF" stroke="#DDE3F8"/>
      <rect x="20" y="20" width="48" height="48" rx="16" fill="#EEF2FF"/>
      <text x="44" y="51" text-anchor="middle" font-size="24">✓</text>
      <text x="86" y="40" class="rail-title">Integrity line</text>
      <text x="86" y="68" class="rail-small">Citation truth, ethics, consistency</text>
      <text x="86" y="90" class="rail-small">citation · consistency · ethics</text>
    </g>
    <g transform="translate(435 430)">
      <rect width="330" height="112" rx="24" fill="#FFFFFF" stroke="#DDE3F8"/>
      <rect x="20" y="20" width="48" height="48" rx="16" fill="#ECFEFF"/>
      <text x="44" y="51" text-anchor="middle" font-size="24">▣</text>
      <text x="86" y="40" class="rail-title">Demo / software</text>
      <text x="86" y="68" class="rail-small">Competition demo, UI, architecture</text>
      <text x="86" y="90" class="rail-small">frontend-design · system-design</text>
    </g>
    <g transform="translate(810 430)">
      <rect width="330" height="112" rx="24" fill="#FFFFFF" stroke="#DDE3F8"/>
      <rect x="20" y="20" width="48" height="48" rx="16" fill="#F5F3FF"/>
      <text x="44" y="51" text-anchor="middle" font-size="24">◆</text>
      <text x="86" y="40" class="rail-title">IP handoff</text>
      <text x="86" y="68" class="rail-small">Patent disclosure and copyright packet</text>
      <text x="86" y="90" class="rail-small">patent-disclosure · copyright</text>
    </g>
  </g>
</svg>
